<svg xmlns="http://www.w3.org/2000/svg" viewBox="0 0 100 40">
  <g fill="none" fill-rule="evenodd">
    <path fill="#0058AB" d="M99.99 40H0V0h100v40z"/>
    <path d="M2 20c0 9.83 20.12 18 48 18 27.9 0 48-8.17 48-18S77.88 2 50 2C22.14 2 2 10.17 2 20z" fill="#FBD914"/>
    <path d="M46.45 26c.31.45.66.87 1.06 1.25H36.69c0-.42-.42-1.27-.88-1.94l-2.94-4.36V26c0 .42 0 .83.22 1.25h-9.02c.22-.42.22-.83.22-1.25V14c0-.42 0-.82-.22-1.24h9.02c-.22.42-.22.82-.22 1.24v5.25l3.55-4.52c.5-.65 1.11-1.55 1.11-1.97h9.4c-.64.42-1.36 1.17-1.94 1.87l-3.44 4.1s4.32 6.45 4.9 7.27zm2.84-12v12c0 .42 0 .83-.22 1.25h17.4v-4.03c-.43.21-.85.21-1.27.21h-7.33v-1.9h7.04v-3.05h-7.04v-1.92h7.33c.43 0 .84 0 1.27.2v-4.02h-17.4c.22.44.22.84.22 1.26zm41.29 12c.14.47.39.89.7 1.25h-9.43c.04-.42-.11-.83-.29-1.25l-.34-.82-.09-.21H75.7l-.09.22-.3.83c-.14.42-.3.82-.24 1.24h-7.44a3.64 3.64 0 0 0 .68-1.24l4.45-12c.16-.42.32-.83.26-1.25H85.6c-.11.42.12.83.27 1.24.38.91 4.4 11.18 4.72 12zm-10.64-4.1-1.32-3.35c-.11-.31-.21-.63-.28-.95a5.5 5.5 0 0 1-.26.95c-.04.14-.6 1.6-1.25 3.36h3.11zM19.8 12.77H10c.21.42.21.82.21 1.24v12c0 .42 0 .83-.21 1.25h9.8c-.21-.42-.21-.83-.21-1.25V14c0-.42 0-.82.21-1.24zm67.77 1.14a1.84 1.84 0 0 1 1.82-1.9h.13c1.06-.01 1.93.8 1.95 1.83v.07a1.93 1.93 0 0 1-1.9 1.96A1.93 1.93 0 0 1 87.54 14c.02-.03.02-.07.02-.1zm.39 0c0 .84.7 1.53 1.56 1.53s1.56-.69 1.56-1.53c0-.84-.7-1.52-1.56-1.52a1.5 1.5 0 0 0-1.56 1.41v.11zm1.17 1.14h-.34v-2.3h.87c.42.02.73.34.73.74 0 .28-.16.53-.41.67l.5.89h-.39l-.46-.82h-.5v.82zm0-1.14h.47c.23.02.43-.15.43-.37 0-.23-.15-.42-.38-.42h-.52v.8z" fill="#0058A3" fill-rule="nonzero"/>
  </g>
</svg>